PathFileType	4	(X/Y/Z)	s01c0101.trc
DataRate	CameraRate	NumFrames	NumMarkers	Units	OrigDataRate	OrigDataStartFrame	OrigNumFrames
200	200	4	47	mm	200	500	2000
Frame#	Time	racr			lacr			c7			jug			rlel			rdr			llel			ldr			s2			lic			ric			lasi			rasi			rpsi			lpsi			rgt			lgt			rth1			rth2			rth3			rth4			rlfc			rsh1			rsh2			rsh3			rsh4			rlmal			rmmal			rcal			rtoe			rmt5			lth1			lth2			lth4			lth3			llfc			lsh1			lsh2			lsh3			lsh4			llmal			lcal			ltoe			lmt5			SBIKE			LBIKE			RBIKE			
		X1	Y1	Z1	X2	Y2	Z2	X3	Y3	Z3	X4	Y4	Z4	X5	Y5	Z5	X6	Y6	Z6	X7	Y7	Z7	X8	Y8	Z8	X9	Y9	Z9	X10	Y10	Z10	X11	Y11	Z11	X12	Y12	Z12	X13	Y13	Z13	X14	Y14	Z14	X15	Y15	Z15	X16	Y16	Z16	X17	Y17	Z17	X18	Y18	Z18	X19	Y19	Z19	X20	Y20	Z20	X21	Y21	Z21	X22	Y22	Z22	X23	Y23	Z23	X24	Y24	Z24	X25	Y25	Z25	X26	Y26	Z26	X27	Y27	Z27	X28	Y28	Z28	X29	Y29	Z29	X30	Y30	Z30	X31	Y31	Z31	X32	Y32	Z32	X33	Y33	Z33	X34	Y34	Z34	X35	Y35	Z35	X36	Y36	Z36	X37	Y37	Z37	X38	Y38	Z38	X39	Y39	Z39	X40	Y40	Z40	X41	Y41	Z41	X42	Y42	Z42	X43	Y43	Z43	X44	Y44	Z44	X45	Y45	Z45	X46	Y46	Z46	X47	Y47	Z47	
500	2.5000	503.270647	1327.932896	-141.939166	493.590244	1316.531220	-452.486671	438.837046	1403.132551	-295.787621	451.748532	1234.809634	-286.720626	570.175087	1067.036204	-29.207909	723.328525	854.135366	-76.949144	512.166208	1037.850180	-557.824356	698.668366	875.931113	-463.140024	-80.309399	1167.730041	-266.536710	84.774119	1173.761820	-446.148860	79.790456	1186.961725	-109.639634	91.788995	1125.961978	-414.696067	107.278614	1142.134434	-138.924263	-52.850461	1212.450373	-215.856680	-54.633340	1210.770899	-321.236665	38.092205	1080.916591	-71.682321	36.354616	1035.753231	-452.330397	155.026881	1015.209710	-61.200328	232.394042	984.493810	-62.796589	312.815394	944.197472	-73.130105	254.335975	1032.404039	-80.684869	382.455656	865.896548	-99.706716	300.155048	784.487779	-67.964731	242.752389	722.250035	-74.149417	176.095098	664.055957	-85.153827	275.536326	691.136285	-114.969157	79.247593	588.010130	-102.508657	120.272200	574.214742	-182.762722	28.962717	588.450889	-159.636723	217.551481	392.403586	-142.124055	120.947152	442.262827	-74.545707	93.430045	918.631851	-458.851799	160.435519	861.191832	-445.779892	196.914920	900.398026	-440.241669	217.470466	799.603075	-424.429705	278.276240	707.809938	-405.617996	250.087433	597.278179	-446.855770	247.827812	510.769288	-442.838012	242.765560	425.510992	-432.348554	301.594100	511.780920	-412.064330	232.847088	296.060510	-420.546831	188.912141	263.716498	-381.517877	465.240072	233.874236	-379.804382	361.944676	213.010574	-449.118245	-227.896725	891.283827	-253.314779	-21.117085	80.071492	-453.886883	-21.129448	80.208048	-53.925441	
501	2.5050	504.032535	1329.250785	-142.084011	494.919190	1317.012485	-452.319594	439.974608	1404.202309	-295.981667	452.508215	1236.047703	-286.436911	571.479171	1068.086515	-30.433249	723.703391	854.216094	-77.211620	514.201780	1038.503805	-557.297452	699.519849	875.496078	-462.663876	-79.177300	1168.155470	-267.709150	85.766388	1173.359313	-446.566987	80.559478	1188.499156	-110.311502	93.575963	1126.165145	-414.891544	108.022499	1143.321019	-139.624542	-51.938989	1213.166355	-217.146361	-53.300706	1210.935804	-322.625435	39.089823	1082.678940	-71.946985	37.512144	1035.323343	-452.659106	156.410194	1018.327300	-61.056302	234.064708	988.780860	-62.522846	315.130754	949.731471	-72.789644	255.083110	1036.809921	-81.792375	385.638441	872.397830	-99.153023	303.220295	790.869327	-67.822796	245.867344	728.588137	-73.972839	179.365893	670.286120	-85.320569	278.892711	698.320592	-113.977433	83.015815	593.924071	-102.768792	124.172654	580.393275	-183.215765	32.542679	593.881615	-159.930111	222.496364	399.432959	-142.622716	126.096791	448.740777	-74.780962	92.280361	917.762725	-459.510536	158.180449	859.278175	-446.609381	195.391669	897.673461	-440.850519	214.120167	796.550753	-425.298428	273.489189	703.805607	-406.891765	245.481288	593.151449	-448.031995	243.431891	506.550379	-443.892681	238.652752	421.323636	-433.403373	297.208229	507.755578	-413.102871	229.055253	291.772288	-421.288743	185.026550	260.547737	-382.548246	460.904215	225.993850	-379.314085	357.564720	206.917484	-449.219515	-227.878411	891.310720	-253.384074	-21.096364	80.075542	-453.895426	-21.093694	80.236198	-53.951547	
502	2.5100	504.800829	1330.522292	-142.334948	496.279267	1317.400757	-452.069782	441.044181	1405.220726	-296.303546	453.240299	1237.425105	-286.481236	572.695795	1069.068431	-31.702592	724.019054	854.311462	-77.561757	516.413150	1039.389299	-556.830966	700.505409	875.009516	-462.122430	-78.116858	1168.657961	-268.770965	86.932209	1173.204608	-446.798259	81.254962	1189.958697	-110.944434	99.286014	1127.100593	-418.010658	108.758262	1144.640352	-140.225210	-51.046329	1213.871230	-218.395865	-51.980933	1211.152271	-323.848790	40.043066	1084.411960	-72.241871	38.379138	1035.046099	-453.101716	157.383193	1021.594418	-61.360088	235.694375	993.499432	-62.622389	317.395053	955.607801	-72.804452	255.733680	1041.445684	-82.910674	388.573185	878.833067	-98.799967	306.155106	797.144315	-67.720075	248.992254	734.747390	-74.011525	182.528686	676.259804	-85.635165	282.153207	704.565332	-113.791896	86.845651	599.438237	-103.034909	128.180146	586.125390	-183.609533	36.183346	598.940803	-160.232020	230.133839	407.975348	-141.658877	131.493083	455.133504	-75.021464	90.930678	917.093642	-460.185917	155.708320	857.550516	-447.483003	193.619259	895.249910	-441.607360	210.434415	793.759480	-426.320457	268.494281	699.900980	-408.008391	240.543432	589.187538	-449.270837	238.731923	502.622514	-445.100922	234.233516	417.335663	-434.490304	292.493931	503.969318	-414.277473	225.970950	287.919790	-421.130888	180.860823	257.698234	-383.693945	456.076095	218.392785	-378.826184	352.916294	201.064106	-449.304517	-227.871676	891.335407	-253.467586	-21.088404	80.079257	-453.909631	-21.099073	80.252313	-53.936313	
503	2.5150	505.470767	1331.818165	-142.591243	497.683731	1317.839247	-451.788142	442.115569	1406.324274	-296.646783	454.055194	1238.702180	-286.563976	573.917564	1070.141903	-33.011450	724.288547	854.468266	-78.001527	518.791334	1040.474728	-556.446281	701.526807	874.527708	-461.841944	-77.088435	1169.330872	-269.925119	88.396485	1173.345540	-446.831459	81.974761	1191.321510	-111.635899	100.207658	1127.023312	-417.705006	109.432508	1145.901825	-140.919089	-50.130829	1214.578831	-219.534268	-50.712389	1211.421336	-325.020284	40.830388	1086.093899	-72.609409	38.999939	1034.986490	-453.532912	158.551625	1025.282303	-61.851576	237.226496	998.383941	-62.997322	319.489124	961.598379	-73.213758	256.554551	1046.428254	-83.601589	391.337706	885.125485	-98.520020	308.986432	803.257092	-67.868559	252.028663	740.692368	-74.134815	185.859554	681.974526	-85.975359	285.436359	710.489587	-113.818633	90.697512	604.613393	-103.390018	132.031848	591.840949	-184.051544	39.923897	603.590548	-160.556060	234.897013	414.334622	-142.797188	137.317929	461.468280	-75.201728	89.396465	916.609445	-460.873596	152.872882	855.920816	-448.483582	191.395775	892.921648	-442.829599	206.355448	791.174753	-427.482198	263.074590	696.020701	-409.225643	235.276101	585.421772	-450.626939	233.698694	498.785078	-446.291873	229.425189	413.592684	-435.680689	287.251561	500.330843	-415.253159	221.757249	284.125690	-421.944909	176.417579	255.052349	-384.742339	450.984513	211.175700	-378.417362	347.814469	195.412131	-449.319334	-227.873117	891.352782	-253.569822	-21.071995	80.073776	-453.907469	-21.078428	80.240172	-53.961632	
